HIERARCHY
ROOT Hips
{
	OFFSET 0.0000 0.0000 0.0000
	CHANNELS 6 Xposition Yposition Zposition Zrotation Xrotation Yrotation
	JOINT Ab
	{
		OFFSET -0.0000 8.1305 -0.0000
		CHANNELS 3 Zrotation Xrotation Yrotation
		JOINT Chest
		{
			OFFSET -0.0000 26.2902 -0.0000
			CHANNELS 3 Zrotation Xrotation Yrotation
			JOINT Neck
			{
				OFFSET -0.0000 26.2902 0.0000
				CHANNELS 3 Zrotation Xrotation Yrotation
				JOINT Head
				{
					OFFSET -0.0000 10.8167 0.0000
					CHANNELS 3 Zrotation Xrotation Yrotation
					End Site
					{
						OFFSET -0.0000 16.7167 0.0000
					}
				}
			}
			JOINT LeftCollar
			{
				OFFSET -0.0000 26.2902 0.0000
				CHANNELS 3 Zrotation Xrotation Yrotation
				JOINT LeftShoulder
				{
					OFFSET 19.6667 -0.0000 0.0000
					CHANNELS 3 Zrotation Xrotation Yrotation
					JOINT LeftElbow
					{
						OFFSET 27.2190 0.0000 0.0000
						CHANNELS 3 Zrotation Xrotation Yrotation
						JOINT LeftWrist
						{
							OFFSET 30.7431 0.0000 0.0000
							CHANNELS 3 Zrotation Xrotation Yrotation
							End Site
							{
								OFFSET 0.0000 -14.7500 0.0000
							}
						}
					}
				}
			}
			JOINT RightCollar
			{
				OFFSET -0.0000 26.2902 0.0000
				CHANNELS 3 Zrotation Xrotation Yrotation
				JOINT RightShoulder
				{
					OFFSET -19.6667 0.0000 0.0000
					CHANNELS 3 Zrotation Xrotation Yrotation
					JOINT RightElbow
					{
						OFFSET -27.2190 0.0000 0.0000
						CHANNELS 3 Zrotation Xrotation Yrotation
						JOINT RightWrist
						{
							OFFSET -30.7431 0.0000 0.0000
							CHANNELS 3 Zrotation Xrotation Yrotation
							End Site
							{
								OFFSET -0.0000 -14.7500 0.0000
							}
						}
					}
				}
			}
		}
	}
	JOINT LeftHip
	{
		OFFSET 11.8000 0.0000 0.0000
		CHANNELS 3 Zrotation Xrotation Yrotation
		JOINT LeftKnee
		{
			OFFSET -0.0000 -39.7832 0.0000
			CHANNELS 3 Zrotation Xrotation Yrotation
			JOINT LeftAnkle
			{
				OFFSET -0.0000 -41.7317 0.0000
				CHANNELS 3 Zrotation Xrotation Yrotation
				End Site
				{
					OFFSET -0.0000 -4.9167 16.7167
				}
			}
		}
	}
	JOINT RightHip
	{
		OFFSET -11.8000 0.0000 0.0000
		CHANNELS 3 Zrotation Xrotation Yrotation
		JOINT RightKnee
		{
			OFFSET -0.0000 -39.7832 0.0000
			CHANNELS 3 Zrotation Xrotation Yrotation
			JOINT RightAnkle
			{
				OFFSET -0.0000 -41.7317 0.0000
				CHANNELS 3 Zrotation Xrotation Yrotation
				End Site
				{
					OFFSET -0.0000 -4.9167 16.7167
				}
			}
		}
	}
}
MOTION
Frames: 10
Frame Time: 0.010000
-17.6215 96.7157 178.9337 358.6781 357.9032 179.2452 358.6702 348.4654 0.3963 2.0406 9.6925 0.3609 359.4776 352.8788 1.5769 353.9508 6.1500 1.9337 339.0153 357.3323 14.3157 318.7267 59.2308 340.1865 8.9233 357.3529 327.0173 84.0957 356.8817 346.2327 28.5621 355.9865 344.3110 45.1161 46.4533 3.8737 341.7212 354.8137 31.3178 270.7562 356.0772 11.8276 356.7662 2.6131 358.6853 357.6957 10.1335 358.9459 355.9377 347.8875 21.8224 0.1775 7.4697 8.4850 6.1802 4.2224 5.5123 349.7107 343.4644 318.4953 
-17.6407 96.7110 178.9188 358.6812 357.8848 179.2262 358.6665 348.4644 0.4037 2.0737 9.7207 0.3602 359.4621 352.8744 1.5970 353.9614 6.1345 1.9543 338.9935 357.3372 14.3314 318.7369 59.1906 340.2056 8.8748 357.3699 326.9475 84.0331 356.9020 346.1854 28.5308 355.9779 344.3258 45.1303 46.4266 3.8676 341.6867 354.8243 31.3465 270.7781 356.0537 11.8076 356.7513 2.5390 358.6082 357.6839 10.2783 358.9224 353.1737 347.1595 21.8543 0.1537 7.4348 8.5497 6.2044 4.2748 5.5106 349.7553 343.3507 318.4449 
-17.6620 96.7079 178.9032 358.6828 357.8628 179.2127 358.6742 348.4664 0.4042 2.0795 9.7322 0.3587 359.4904 352.8612 1.6188 353.9368 6.1596 1.9777 339.0116 357.3228 14.3297 318.7002 59.2162 340.2272 8.9217 357.3553 326.9265 84.0799 356.9206 346.2448 28.5318 355.9960 344.3183 45.1048 46.3555 3.8659 341.7525 354.8302 31.4301 270.7096 356.1205 11.7533 356.7376 2.4335 358.5167 357.6564 10.4803 358.9250 353.2463 346.9520 21.9031 0.1248 7.3948 8.6011 6.2284 4.3450 5.5254 349.7752 343.2378 318.4041 
-17.6826 96.7019 178.8890 358.6922 357.8377 179.2041 358.6824 348.4776 0.4061 2.0912 9.7229 0.3609 358.6356 353.5935 1.4813 355.1883 5.0830 1.7707 339.0178 357.3300 14.3327 318.6981 59.2122 340.2310 8.8665 357.3662 326.9069 84.0724 356.9059 346.2019 28.5172 355.9835 344.3168 45.1201 46.3498 3.8401 341.7154 354.8271 31.4580 270.7407 356.1012 11.7225 356.7344 2.3204 358.4256 357.6245 10.6963 358.9077 353.5361 346.8017 21.9756 0.1064 7.3403 8.6508 6.2530 4.4436 5.5426 349.8060 343.0785 318.3599 
-17.7078 96.6987 178.8708 358.6926 357.8123 179.1892 358.6932 348.4873 0.4144 2.0907 9.7169 0.3620 358.4345 353.7542 1.4687 355.5088 4.8497 1.7447 339.0341 357.3248 14.3603 318.7366 59.2758 340.1680 8.8956 357.3580 326.9281 83.9779 356.8773 346.1976 28.5137 355.9969 344.3098 45.1138 46.3225 3.8267 341.7159 354.8038 31.5455 271.0907 355.9633 11.1609 356.7112 2.1907 358.3437 357.6081 10.9440 358.8981 353.6091 346.5708 22.0100 0.0736 7.2801 8.6746 6.2829 4.5498 5.5383 349.9956 342.6926 318.2847 
-17.7341 96.6948 178.8560 358.6949 357.7799 179.1723 358.7262 348.4965 0.4108 2.0607 9.7168 0.3591 358.4494 353.7097 1.4839 355.5126 4.9109 1.7621 339.0617 357.3446 14.3828 318.7545 59.2907 340.1232 8.8810 357.3542 326.9302 83.7944 356.8707 346.0773 28.5183 355.9908 344.2994 45.1064 46.3050 3.8367 341.6963 354.7977 31.5743 271.2369 355.8784 11.0027 356.6916 2.0449 358.2455 357.5833 11.1984 358.8964 353.8539 346.3889 22.0721 0.0357 7.2022 8.7699 6.3289 4.6732 5.5127 350.0877 342.3919 318.2071 
-17.7592 96.6899 178.8366 358.7023 357.7567 179.1495 358.7657 348.5110 0.4055 2.0370 9.7291 0.3540 358.4539 353.6735 1.5068 355.5135 4.9456 1.7869 339.0855 357.3412 14.4011 318.6935 59.2653 340.1545 8.9097 357.3444 326.9062 83.7763 356.8832 346.0888 28.5207 355.9898 344.2955 45.0802 46.2955 3.8560 341.7428 354.8050 31.5993 270.8818 356.0545 11.4276 356.6799 1.9133 358.1371 357.5529 11.4510 358.8927 354.0544 346.1837 22.1311 0.0092 7.1207 8.8541 6.3664 4.8366 5.5394 350.0943 342.1722 318.2030 
-17.7866 96.6854 178.8178 358.7044 357.7195 179.1238 358.7792 348.5025 0.4083 2.0481 9.7657 0.3546 358.4902 353.6277 1.5312 355.4504 4.9753 1.8134 339.0969 357.3404 14.4047 318.6074 59.2197 340.2318 8.9105 357.3427 326.8510 83.7882 356.9163 346.0908 28.5085 355.9925 344.3050 45.0592 46.2489 3.8657 341.7474 354.7912 31.6757 270.9571 356.0529 11.2707 356.6602 1.7550 358.0020 357.5128 11.7256 358.9204 354.2287 345.9584 22.1780 359.9738 7.0096 8.9210 6.4104 5.0317 5.5709 350.2127 341.7670 318.1392 
-17.8150 96.6799 178.7982 358.7085 357.6891 179.0949 358.7874 348.5089 0.4151 2.0661 9.7859 0.3599 358.5289 353.5991 1.5557 355.3964 4.9947 1.8393 339.0960 357.3394 14.3909 318.5684 59.1876 340.2918 8.8849 357.3421 326.8046 83.8761 356.9338 346.1516 28.5018 356.0025 344.3261 45.0533 46.1519 3.8368 341.7930 354.7958 31.7489 270.8934 356.0510 11.2943 356.6411 1.6009 357.9335 357.4905 12.0064 358.8834 354.4252 345.7376 22.2160 359.9364 6.8923 8.9817 6.4669 5.2464 5.5880 350.3732 341.2671 318.0350 
-17.8453 96.6730 178.7733 358.7133 357.6681 179.0625 358.8073 348.5325 0.4232 2.0675 9.7860 0.3650 358.5410 353.5848 1.5803 355.3976 5.0044 1.8646 339.0969 357.3359 14.3741 318.5219 59.1613 340.3596 8.8677 357.3346 326.7794 83.9909 356.9391 346.2164 28.5051 356.0004 344.3531 45.0599 46.0710 3.7793 341.8431 354.7960 31.7927 270.6591 356.1508 11.7056 356.6168 1.4633 357.8823 357.4775 12.2848 358.8456 354.6200 345.5205 22.2507 359.8944 6.7802 8.9989 6.5289 5.4757 5.6417 350.6096 340.7394 317.9741 
